<svg width="366" height="473" viewBox="0 0 366 473" fill="none" xmlns="http://www.w3.org/2000/svg">
<path d="M280.603 221.734C283.223 219.113 284.009 215.172 282.589 211.748C281.172 208.325 277.831 206.093 274.125 206.093H237.266L251.609 189.48C254.916 185.65 254.492 179.865 250.662 176.558C246.831 173.252 241.048 173.675 237.74 177.505L213.056 206.093H90.8797C87.1738 206.093 83.8329 208.325 82.4153 211.748C80.997 215.172 81.7812 219.113 84.4009 221.734L173.34 310.673V403.997H153.183C148.123 403.997 144.021 408.1 144.021 413.16C144.021 418.219 148.123 422.322 153.183 422.322H211.821C216.88 422.322 220.984 418.219 220.984 413.16C220.984 408.1 216.88 403.997 211.821 403.997H191.664V310.673L280.603 221.734Z" fill="#C90606"/>
<path d="M354.603 137.374C354.603 137.374 353.784 152.34 339.422 158.676C325.06 165.02 310.752 150.639 331.516 134.745C352.273 118.852 350.811 66.2595 331.726 50.2672C336.474 63.0305 316.495 80.5192 303.785 69.3296C291.077 48.5736 304.711 14.3343 323.866 4.82192C309.548 -6.38553 267.271 6.26826 267.2 34.9655C267.143 57.7923 267.917 66.8516 248.788 66.0068C227.851 65.0711 245.7 29.3233 248.891 24.5508C186.702 33.1654 221.634 88.2499 197.719 89.7775C173.805 91.318 188.219 65.8553 189.821 62.6604C148.228 69.4713 158.298 95.4891 129.257 117.576C54.9112 139.902 0.65925 208.75 0.44982 290.403C0.207846 390.33 80.9974 471.516 180.918 471.771C280.847 472.013 362.039 391.23 362.294 291.301C362.351 268.214 358.035 246.153 350.207 225.83C352.235 201.529 361.028 186.657 363.99 174.601C370.624 147.628 354.603 137.374 354.603 137.374ZM180.976 448.428C137.425 448.314 98.1487 430.604 69.6697 401.997C41.2046 373.369 23.6895 334.005 23.7922 290.461C23.906 246.903 41.6166 207.626 70.2237 179.147C98.8446 150.681 138.209 133.167 181.76 133.275C225.311 133.384 264.588 151.093 293.074 179.701C321.54 208.322 339.053 247.686 338.951 291.244C338.837 334.789 321.127 374.065 292.52 402.551C263.892 431.016 224.528 448.53 180.976 448.428Z" fill="#C90606"/>
</svg>
