<svg width="64" height="64" viewBox="0 0 64 64" fill="none" xmlns="http://www.w3.org/2000/svg">
<path d="M28.5835 8.45942L23.5298 17.6096L31.6966 37.788C38.0845 53.6511 39.7825 58.6058 39.5399 60.9632L39.2569 64H51.6284H63.9999L61.2911 61.3229C57.8141 57.8865 44.7149 28.1983 36.7907 5.86219C33.9202 -2.24913 34.6075 -2.44892 28.5835 8.45942Z" fill="black"/>
<path d="M28.5835 8.45942L23.5298 17.6096L31.6966 37.788C38.0845 53.6511 39.7825 58.6058 39.5399 60.9632L39.2569 64H51.6284H63.9999L61.2911 61.3229C57.8141 57.8865 44.7149 28.1983 36.7907 5.86219C33.9202 -2.24913 34.6075 -2.44892 28.5835 8.45942Z" fill="black"/>
<path d="M7.51991 54.0107C6.10488 56.6479 3.80039 59.9643 2.46621 61.4028L0 64H8.69237C16.8187 64 17.3039 63.9201 15.6058 62.7613C13.2205 61.0831 11.3607 57.3671 10.6734 52.8919L10.1478 49.2158L7.51991 54.0107Z" fill="black"/>
</svg>
