<svg width="364" height="444" viewBox="0 0 364 444" fill="none" xmlns="http://www.w3.org/2000/svg">
<path d="M351.401 83.4668C355.918 78.7683 357.165 71.8101 354.55 65.8377C351.939 59.8653 345.987 56.055 339.47 56.1824L274.648 57.4499L299.301 27.7415C304.986 20.8912 304.04 10.7312 297.191 5.04798C290.341 -0.635231 280.184 0.308742 274.498 7.15782L232.072 58.2824L17.2054 62.4838C10.6879 62.6113 4.88911 66.6513 2.51381 72.7213C0.137219 78.7912 1.65202 85.6942 6.34924 90.2138L165.821 243.568L169.03 407.694L133.581 408.387C124.682 408.561 117.609 415.917 117.783 424.815C117.957 433.713 125.312 440.787 134.211 440.613L237.335 438.597C246.232 438.423 253.308 431.067 253.134 422.168C252.96 413.27 245.602 406.196 236.705 406.37L201.256 407.063L198.047 242.938L351.401 83.4668Z" fill="#C90606"/>
</svg>
